<svg width="229" height="52" viewBox="0 0 229 52" fill="none" xmlns="http://www.w3.org/2000/svg">
  <path d="M12.7976 24.3041C12.7016 24.4721 12.5636 24.5561 12.3836 24.5561C12.2516 24.5561 12.0836 24.4841 11.8796 24.3401C11.6756 24.1841 11.3996 24.0161 11.0516 23.8361C10.7156 23.6441 10.2956 23.4761 9.79156 23.3321C9.28756 23.1761 8.67556 23.0981 7.95556 23.0981C7.30756 23.0981 6.71356 23.1941 6.17356 23.3861C5.64556 23.5661 5.18956 23.8121 4.80556 24.1241C4.43356 24.4361 4.14556 24.8021 3.94156 25.2221C3.73756 25.6301 3.63556 26.0621 3.63556 26.5181C3.63556 27.0821 3.77956 27.5501 4.06756 27.9221C4.35556 28.2941 4.72756 28.6121 5.18356 28.8761C5.65156 29.1401 6.18556 29.3681 6.78556 29.5601C7.38556 29.7521 7.99156 29.9441 8.60356 30.1361C9.22756 30.3281 9.83956 30.5441 10.4396 30.7841C11.0396 31.0121 11.5676 31.3001 12.0236 31.6481C12.4916 31.9961 12.8696 32.4221 13.1576 32.9261C13.4456 33.4301 13.5896 34.0421 13.5896 34.7621C13.5896 35.5421 13.4516 36.2681 13.1756 36.9401C12.8996 37.6121 12.4916 38.1941 11.9516 38.6861C11.4236 39.1781 10.7696 39.5681 9.98956 39.8561C9.20956 40.1441 8.31556 40.2881 7.30756 40.2881C6.04756 40.2881 4.96156 40.0901 4.04956 39.6941C3.13756 39.2861 2.32156 38.7581 1.60156 38.1101L1.99756 37.4981C2.05756 37.4021 2.12356 37.3301 2.19556 37.2821C2.27956 37.2341 2.38756 37.2101 2.51956 37.2101C2.67556 37.2101 2.86156 37.3061 3.07756 37.4981C3.30556 37.6901 3.60556 37.9001 3.97756 38.1281C4.34956 38.3441 4.80556 38.5481 5.34556 38.7401C5.89756 38.9321 6.57556 39.0281 7.37956 39.0281C8.13556 39.0281 8.80156 38.9261 9.37756 38.7221C9.95356 38.5061 10.4336 38.2181 10.8176 37.8581C11.2016 37.4981 11.4896 37.0781 11.6816 36.5981C11.8856 36.1061 11.9876 35.5901 11.9876 35.0501C11.9876 34.4501 11.8436 33.9521 11.5556 33.5561C11.2676 33.1601 10.8896 32.8241 10.4216 32.5481C9.95356 32.2721 9.41956 32.0381 8.81956 31.8461C8.23156 31.6541 7.62556 31.4621 7.00156 31.2701C6.37756 31.0781 5.76556 30.8681 5.16556 30.6401C4.57756 30.4121 4.04956 30.1241 3.58156 29.7761C3.11356 29.4281 2.73556 29.0081 2.44756 28.5161C2.15956 28.0121 2.01556 27.3881 2.01556 26.6441C2.01556 26.0081 2.15356 25.3961 2.42956 24.8081C2.70556 24.2201 3.09556 23.7041 3.59956 23.2601C4.11556 22.8161 4.73956 22.4621 5.47156 22.1981C6.20356 21.9341 7.02556 21.8021 7.93756 21.8021C9.02956 21.8021 9.99556 21.9581 10.8356 22.2701C11.6876 22.5821 12.4616 23.0621 13.1576 23.7101L12.7976 24.3041Z" fill="#332C29"/>
  <path d="M18.1725 25.1141C19.0005 24.1061 19.9425 23.3021 20.9985 22.7021C22.0665 22.1021 23.2605 21.8021 24.5805 21.8021C25.5645 21.8021 26.4285 21.9581 27.1725 22.2701C27.9285 22.5821 28.5525 23.0321 29.0445 23.6201C29.5365 24.2081 29.9085 24.9161 30.1605 25.7441C30.4125 26.5721 30.5385 27.5081 30.5385 28.5521V40.0001H28.8105V28.5521C28.8105 26.8721 28.4265 25.5581 27.6585 24.6101C26.8905 23.6501 25.7205 23.1701 24.1485 23.1701C22.9845 23.1701 21.8925 23.4701 20.8725 24.0701C19.8645 24.6581 18.9645 25.4801 18.1725 26.5361V40.0001H16.4445V13.8101H18.1725V25.1141Z" fill="#332C29"/>
  <path d="M41.5295 21.8021C42.8135 21.8021 43.9595 22.0241 44.9675 22.4681C45.9875 22.9001 46.8455 23.5181 47.5415 24.3221C48.2375 25.1261 48.7655 26.0981 49.1255 27.2381C49.4975 28.3661 49.6835 29.6321 49.6835 31.0361C49.6835 32.4401 49.4975 33.7061 49.1255 34.8341C48.7655 35.9621 48.2375 36.9281 47.5415 37.7321C46.8455 38.5361 45.9875 39.1541 44.9675 39.5861C43.9595 40.0181 42.8135 40.2341 41.5295 40.2341C40.2455 40.2341 39.0935 40.0181 38.0735 39.5861C37.0655 39.1541 36.2075 38.5361 35.4995 37.7321C34.8035 36.9281 34.2695 35.9621 33.8975 34.8341C33.5375 33.7061 33.3575 32.4401 33.3575 31.0361C33.3575 29.6321 33.5375 28.3661 33.8975 27.2381C34.2695 26.0981 34.8035 25.1261 35.4995 24.3221C36.2075 23.5181 37.0655 22.9001 38.0735 22.4681C39.0935 22.0241 40.2455 21.8021 41.5295 21.8021ZM41.5295 38.8841C42.5975 38.8841 43.5275 38.7041 44.3195 38.3441C45.1235 37.9721 45.7895 37.4441 46.3175 36.7601C46.8575 36.0761 47.2595 35.2541 47.5235 34.2941C47.7875 33.3221 47.9195 32.2361 47.9195 31.0361C47.9195 29.8481 47.7875 28.7681 47.5235 27.7961C47.2595 26.8241 46.8575 25.9961 46.3175 25.3121C45.7895 24.6161 45.1235 24.0821 44.3195 23.7101C43.5275 23.3381 42.5975 23.1521 41.5295 23.1521C40.4615 23.1521 39.5255 23.3381 38.7215 23.7101C37.9295 24.0821 37.2635 24.6161 36.7235 25.3121C36.1955 25.9961 35.7935 26.8241 35.5175 27.7961C35.2535 28.7681 35.1215 29.8481 35.1215 31.0361C35.1215 32.2361 35.2535 33.3221 35.5175 34.2941C35.7935 35.2541 36.1955 36.0761 36.7235 36.7601C37.2635 37.4441 37.9295 37.9721 38.7215 38.3441C39.5255 38.7041 40.4615 38.8841 41.5295 38.8841Z" fill="#332C29"/>
  <path d="M54.3497 26.4101C54.6257 25.6781 54.9377 25.0301 55.2857 24.4661C55.6457 23.8901 56.0537 23.4041 56.5097 23.0081C56.9777 22.6121 57.4937 22.3121 58.0577 22.1081C58.6337 21.8921 59.2697 21.7841 59.9657 21.7841C60.3377 21.7841 60.7037 21.8201 61.0637 21.8921C61.4237 21.9521 61.7417 22.0661 62.0177 22.2341L61.8737 23.4221C61.8137 23.6141 61.6997 23.7101 61.5317 23.7101C61.3877 23.7101 61.1657 23.6681 60.8657 23.5841C60.5777 23.5001 60.1937 23.4581 59.7137 23.4581C59.0177 23.4581 58.3997 23.5661 57.8597 23.7821C57.3317 23.9861 56.8517 24.2981 56.4197 24.7181C55.9997 25.1381 55.6277 25.6601 55.3037 26.2841C54.9917 26.8961 54.7037 27.6041 54.4397 28.4081V40.0001H52.7117V22.0901H53.6297C53.8337 22.0901 53.9777 22.1321 54.0617 22.2161C54.1457 22.3001 54.1997 22.4441 54.2237 22.6481L54.3497 26.4101Z" fill="#332C29"/>
  <path d="M68.5343 40.2881C67.3223 40.2881 66.3743 39.9521 65.6903 39.2801C65.0183 38.6081 64.6823 37.5701 64.6823 36.1661V23.9261H62.1083C61.9763 23.9261 61.8683 23.8901 61.7843 23.8181C61.7003 23.7461 61.6583 23.6441 61.6583 23.5121V22.8461L64.7183 22.6301L65.1503 16.2221C65.1743 16.1141 65.2223 16.0181 65.2943 15.9341C65.3663 15.8501 65.4683 15.8081 65.6003 15.8081H66.4103V22.6481H72.0623V23.9261H66.4103V36.0761C66.4103 36.5681 66.4703 36.9941 66.5903 37.3541C66.7223 37.7021 66.8963 37.9901 67.1123 38.2181C67.3403 38.4461 67.6043 38.6141 67.9043 38.7221C68.2043 38.8301 68.5283 38.8841 68.8763 38.8841C69.3083 38.8841 69.6803 38.8241 69.9923 38.7041C70.3043 38.5721 70.5743 38.4341 70.8023 38.2901C71.0303 38.1341 71.2163 37.9961 71.3603 37.8761C71.5043 37.7441 71.6183 37.6781 71.7023 37.6781C71.7983 37.6781 71.8943 37.7381 71.9903 37.8581L72.4583 38.6141C72.0023 39.1181 71.4203 39.5261 70.7123 39.8381C70.0163 40.1381 69.2903 40.2881 68.5343 40.2881Z" fill="#332C29"/>
  <path d="M95.6547 22.0901L88.0947 40.0001H86.5827L79.0227 22.0901H80.3727C80.5407 22.0901 80.6787 22.1381 80.7867 22.2341C80.8947 22.3181 80.9667 22.4141 81.0027 22.5221L86.9247 36.6521C87.1047 37.1801 87.2487 37.7021 87.3567 38.2181C87.4647 37.7021 87.6147 37.1801 87.8067 36.6521L93.7467 22.5221C93.8067 22.3901 93.8847 22.2881 93.9807 22.2161C94.0887 22.1321 94.2147 22.0901 94.3587 22.0901H95.6547Z" fill="#332C29"/>
  <path d="M99.451 22.0901V40.0001H97.741V22.0901H99.451ZM100.189 15.9161C100.189 16.1321 100.141 16.3361 100.045 16.5281C99.961 16.7081 99.847 16.8701 99.703 17.0141C99.559 17.1581 99.391 17.2721 99.199 17.3561C99.007 17.4401 98.803 17.4821 98.587 17.4821C98.371 17.4821 98.167 17.4401 97.975 17.3561C97.783 17.2721 97.615 17.1581 97.471 17.0141C97.327 16.8701 97.213 16.7081 97.129 16.5281C97.045 16.3361 97.003 16.1321 97.003 15.9161C97.003 15.7001 97.045 15.4961 97.129 15.3041C97.213 15.1001 97.327 14.9261 97.471 14.7821C97.615 14.6381 97.783 14.5241 97.975 14.4401C98.167 14.3561 98.371 14.3141 98.587 14.3141C98.803 14.3141 99.007 14.3561 99.199 14.4401C99.391 14.5241 99.559 14.6381 99.703 14.7821C99.847 14.9261 99.961 15.1001 100.045 15.3041C100.141 15.4961 100.189 15.7001 100.189 15.9161Z" fill="#332C29"/>
  <path d="M116.323 29.2361C116.323 28.2761 116.185 27.4181 115.909 26.6621C115.645 25.8941 115.267 25.2461 114.775 24.7181C114.283 24.1901 113.695 23.7881 113.011 23.5121C112.339 23.2241 111.595 23.0801 110.779 23.0801C109.855 23.0801 109.027 23.2241 108.295 23.5121C107.563 23.8001 106.927 24.2141 106.387 24.7541C105.859 25.2941 105.433 25.9421 105.109 26.6981C104.785 27.4541 104.569 28.3001 104.461 29.2361H116.323ZM104.371 30.3341V30.6761C104.371 32.0201 104.527 33.2021 104.839 34.2221C105.151 35.2421 105.595 36.1001 106.171 36.7961C106.747 37.4801 107.443 37.9961 108.259 38.3441C109.075 38.6921 109.987 38.8661 110.995 38.8661C111.895 38.8661 112.675 38.7701 113.335 38.5781C113.995 38.3741 114.547 38.1521 114.991 37.9121C115.447 37.6601 115.807 37.4381 116.071 37.2461C116.335 37.0421 116.527 36.9401 116.647 36.9401C116.803 36.9401 116.923 37.0001 117.007 37.1201L117.475 37.6961C117.187 38.0561 116.803 38.3921 116.323 38.7041C115.855 39.0161 115.327 39.2861 114.739 39.5141C114.163 39.7301 113.539 39.9041 112.867 40.0361C112.207 40.1681 111.541 40.2341 110.869 40.2341C109.645 40.2341 108.529 40.0241 107.521 39.6041C106.513 39.1721 105.649 38.5481 104.929 37.7321C104.209 36.9161 103.651 35.9201 103.255 34.7441C102.871 33.5561 102.679 32.2001 102.679 30.6761C102.679 29.3921 102.859 28.2101 103.219 27.1301C103.591 26.0381 104.119 25.1021 104.803 24.3221C105.499 23.5301 106.345 22.9121 107.341 22.4681C108.349 22.0241 109.489 21.8021 110.761 21.8021C111.769 21.8021 112.705 21.9761 113.569 22.3241C114.433 22.6721 115.183 23.1821 115.819 23.8541C116.455 24.5141 116.953 25.3301 117.313 26.3021C117.685 27.2741 117.871 28.3901 117.871 29.6501C117.871 29.9141 117.835 30.0941 117.763 30.1901C117.691 30.2861 117.571 30.3341 117.403 30.3341H104.371Z" fill="#332C29"/>
  <path d="M144.297 22.0901L138.321 40.0001H137.043C136.839 40.0001 136.701 39.8741 136.629 39.6221L131.733 25.0781C131.673 24.8981 131.619 24.7181 131.571 24.5381C131.523 24.3581 131.481 24.1781 131.445 23.9981C131.385 24.3581 131.295 24.7181 131.175 25.0781L126.207 39.6221C126.135 39.8741 125.991 40.0001 125.775 40.0001H124.551L118.575 22.0901H119.871C120.039 22.0901 120.177 22.1381 120.285 22.2341C120.393 22.3181 120.465 22.4141 120.501 22.5221L125.019 36.6521C125.091 36.9281 125.157 37.1981 125.217 37.4621C125.277 37.7141 125.325 37.9661 125.361 38.2181C125.433 37.9661 125.505 37.7141 125.577 37.4621C125.649 37.1981 125.733 36.9281 125.829 36.6521L130.617 22.3961C130.701 22.1321 130.869 22.0001 131.121 22.0001H131.823C132.087 22.0001 132.261 22.1321 132.345 22.3961L137.097 36.6521C137.181 36.9281 137.259 37.1921 137.331 37.4441C137.403 37.6961 137.469 37.9481 137.529 38.2001C137.577 37.9481 137.625 37.6961 137.673 37.4441C137.733 37.1921 137.805 36.9281 137.889 36.6521L142.443 22.5221C142.491 22.3901 142.569 22.2881 142.677 22.2161C142.785 22.1321 142.911 22.0901 143.055 22.0901H144.297Z" fill="#332C29"/>
  <path d="M150.723 40.0001V21.3341H154.179C154.527 21.3341 154.815 21.4121 155.043 21.5681C155.283 21.7241 155.451 21.9581 155.547 22.2701L155.871 23.3501C156.231 23.0141 156.603 22.7021 156.987 22.4141C157.371 22.1261 157.779 21.8861 158.211 21.6941C158.655 21.4901 159.129 21.3341 159.633 21.2261C160.149 21.1061 160.707 21.0461 161.307 21.0461C162.327 21.0461 163.227 21.2261 164.007 21.5861C164.799 21.9341 165.465 22.4261 166.005 23.0621C166.545 23.6861 166.953 24.4361 167.229 25.3121C167.505 26.1761 167.643 27.1181 167.643 28.1381V40.0001H162.063V28.1381C162.063 27.2261 161.853 26.5181 161.433 26.0141C161.013 25.4981 160.395 25.2401 159.579 25.2401C158.967 25.2401 158.391 25.3721 157.851 25.6361C157.311 25.9001 156.795 26.2541 156.303 26.6981V40.0001H150.723Z" fill="#DA3555"/>
  <path d="M177.798 21.0461C179.034 21.0461 180.162 21.2381 181.182 21.6221C182.214 22.0061 183.096 22.5641 183.828 23.2961C184.572 24.0281 185.148 24.9281 185.556 25.9961C185.976 27.0521 186.186 28.2521 186.186 29.5961C186.186 30.0161 186.168 30.3581 186.132 30.6221C186.096 30.8861 186.03 31.0961 185.934 31.2521C185.838 31.4081 185.706 31.5161 185.538 31.5761C185.382 31.6361 185.178 31.6661 184.926 31.6661H174.162C174.342 33.2261 174.816 34.3601 175.584 35.0681C176.352 35.7641 177.342 36.1121 178.554 36.1121C179.202 36.1121 179.76 36.0341 180.228 35.8781C180.696 35.7221 181.11 35.5481 181.47 35.3561C181.842 35.1641 182.178 34.9901 182.478 34.8341C182.79 34.6781 183.114 34.6001 183.45 34.6001C183.894 34.6001 184.23 34.7621 184.458 35.0861L186.078 37.0841C185.502 37.7441 184.878 38.2841 184.206 38.7041C183.546 39.1121 182.862 39.4361 182.154 39.6761C181.458 39.9041 180.756 40.0601 180.048 40.1441C179.352 40.2401 178.686 40.2881 178.05 40.2881C176.742 40.2881 175.512 40.0781 174.36 39.6581C173.22 39.2261 172.218 38.5901 171.354 37.7501C170.502 36.9101 169.824 35.8661 169.32 34.6181C168.828 33.3701 168.582 31.9181 168.582 30.2621C168.582 29.0141 168.792 27.8321 169.212 26.7161C169.644 25.6001 170.256 24.6221 171.048 23.7821C171.852 22.9421 172.818 22.2761 173.946 21.7841C175.086 21.2921 176.37 21.0461 177.798 21.0461ZM177.906 24.8981C176.838 24.8981 176.004 25.2041 175.404 25.8161C174.804 26.4161 174.408 27.2861 174.216 28.4261H181.182C181.182 27.9821 181.122 27.5501 181.002 27.1301C180.894 26.7101 180.708 26.3381 180.444 26.0141C180.192 25.6781 179.856 25.4081 179.436 25.2041C179.016 25.0001 178.506 24.8981 177.906 24.8981Z" fill="#DA3555"/>
  <path d="M185.428 21.3341H189.892C190.288 21.3341 190.63 21.4241 190.918 21.6041C191.206 21.7841 191.38 22.0181 191.44 22.3061L193.312 30.6761C193.456 31.3121 193.588 31.9301 193.708 32.5301C193.828 33.1301 193.936 33.7241 194.032 34.3121C194.2 33.7241 194.374 33.1361 194.554 32.5481C194.746 31.9481 194.932 31.3241 195.112 30.6761L197.452 22.2881C197.524 22.0121 197.698 21.7841 197.974 21.6041C198.25 21.4121 198.568 21.3161 198.928 21.3161H201.412C201.808 21.3161 202.144 21.4121 202.42 21.6041C202.708 21.7841 202.888 22.0121 202.96 22.2881L205.192 30.6761C205.36 31.3121 205.528 31.9301 205.696 32.5301C205.876 33.1301 206.044 33.7361 206.2 34.3481C206.296 33.7481 206.41 33.1541 206.542 32.5661C206.686 31.9661 206.836 31.3361 206.992 30.6761L208.972 22.3061C209.032 22.0181 209.2 21.7841 209.476 21.6041C209.764 21.4241 210.088 21.3341 210.448 21.3341H214.696L208.9 40.0001H204.364C204.124 40.0001 203.92 39.9281 203.752 39.7841C203.584 39.6401 203.452 39.4001 203.356 39.0641L200.692 29.7581C200.572 29.3381 200.458 28.9241 200.35 28.5161C200.242 28.1081 200.146 27.7001 200.062 27.2921C199.978 27.7121 199.882 28.1321 199.774 28.5521C199.678 28.9601 199.564 29.3741 199.432 29.7941L196.732 39.0641C196.552 39.6881 196.156 40.0001 195.544 40.0001H191.224L185.428 21.3341Z" fill="#DA3555"/>
  <path d="M226.485 25.4201C226.341 25.6481 226.185 25.8101 226.017 25.9061C225.861 26.0021 225.657 26.0501 225.405 26.0501C225.141 26.0501 224.877 25.9961 224.613 25.8881C224.349 25.7681 224.061 25.6421 223.749 25.5101C223.449 25.3781 223.107 25.2581 222.723 25.1501C222.339 25.0301 221.901 24.9701 221.409 24.9701C220.701 24.9701 220.155 25.1081 219.771 25.3841C219.399 25.6481 219.213 26.0201 219.213 26.5001C219.213 26.8481 219.333 27.1361 219.573 27.3641C219.825 27.5921 220.155 27.7961 220.563 27.9761C220.971 28.1441 221.433 28.3061 221.949 28.4621C222.465 28.6181 222.993 28.7921 223.533 28.9841C224.073 29.1761 224.601 29.4041 225.117 29.6681C225.633 29.9201 226.095 30.2381 226.503 30.6221C226.911 30.9941 227.235 31.4501 227.475 31.9901C227.727 32.5301 227.853 33.1781 227.853 33.9341C227.853 34.8581 227.685 35.7101 227.349 36.4901C227.013 37.2701 226.509 37.9421 225.837 38.5061C225.177 39.0701 224.355 39.5081 223.371 39.8201C222.399 40.1321 221.277 40.2881 220.005 40.2881C219.369 40.2881 218.733 40.2281 218.097 40.1081C217.461 39.9881 216.843 39.8261 216.243 39.6221C215.655 39.4181 215.109 39.1781 214.605 38.9021C214.101 38.6141 213.669 38.3081 213.309 37.9841L214.605 35.9321C214.761 35.6921 214.947 35.5061 215.163 35.3741C215.379 35.2301 215.661 35.1581 216.009 35.1581C216.333 35.1581 216.621 35.2301 216.873 35.3741C217.137 35.5181 217.419 35.6741 217.719 35.8421C218.019 36.0101 218.367 36.1661 218.763 36.3101C219.171 36.4541 219.681 36.5261 220.293 36.5261C220.725 36.5261 221.091 36.4841 221.391 36.4001C221.691 36.3041 221.931 36.1781 222.111 36.0221C222.291 35.8661 222.423 35.6921 222.507 35.5001C222.591 35.3081 222.633 35.1101 222.633 34.9061C222.633 34.5341 222.507 34.2281 222.255 33.9881C222.003 33.7481 221.673 33.5441 221.265 33.3761C220.857 33.1961 220.389 33.0341 219.861 32.8901C219.345 32.7341 218.817 32.5601 218.277 32.3681C217.737 32.1761 217.203 31.9481 216.675 31.6841C216.159 31.4081 215.697 31.0661 215.289 30.6581C214.881 30.2381 214.551 29.7281 214.299 29.1281C214.047 28.5281 213.921 27.8021 213.921 26.9501C213.921 26.1581 214.071 25.4081 214.371 24.7001C214.683 23.9801 215.145 23.3501 215.757 22.8101C216.369 22.2701 217.137 21.8441 218.061 21.5321C218.985 21.2081 220.065 21.0461 221.301 21.0461C221.973 21.0461 222.621 21.1061 223.245 21.2261C223.881 21.3461 224.475 21.5141 225.027 21.7301C225.579 21.9461 226.083 22.2041 226.539 22.5041C226.995 22.7921 227.397 23.1101 227.745 23.4581L226.485 25.4201Z" fill="#DA3555"/>
</svg>
