<svg width="142" height="142" viewBox="0 0 142 142" fill="none" xmlns="http://www.w3.org/2000/svg">
  <path d="M17.3203 104.818C29.3474 105.971 39.9912 102.935 49.7128 95.6727C47.1767 95.4805 44.9865 95.1347 42.8731 94.3662C37.3014 92.3681 33.1515 88.7561 30.5002 83.5303C30.1159 82.8002 29.8085 81.9933 29.4627 81.2248C29.0784 80.4563 29.4627 80.3026 30.1543 80.4563C32.9209 80.8789 35.6107 80.7252 38.3389 80.1489C38.3773 80.1489 38.4157 80.072 38.531 80.0336C38.5686 79.7333 38.3494 79.6897 38.1602 79.652L38.1468 79.6493C32.0372 78.1123 27.4261 74.5388 24.2753 69.1208C22.4693 66.0468 21.5471 62.7422 21.4702 59.2071C21.4702 58.2849 21.7008 58.2081 22.4693 58.5539C25.1975 59.8604 28.0409 60.6673 31.3071 60.7826C29.7316 59.5145 28.2715 58.3618 27.1187 56.9785C22.7767 51.8679 21.0091 45.9889 21.8545 39.3413C22.1619 36.8437 22.9304 34.5766 24.0447 32.3095C24.429 31.4641 24.7364 31.3873 25.3512 32.1174C28.8863 36.421 32.9978 40.0714 37.5704 43.2607C40.9902 45.6815 44.6022 47.6411 48.4063 49.2934C53.3631 51.4452 58.4737 52.867 63.7764 53.7507C65.5824 54.0197 67.3499 54.0966 69.1175 54.3271C69.9628 54.404 70.0781 54.0966 69.886 53.3665C69.0022 48.7555 69.5786 44.2597 71.5767 40.0714C74.7276 33.5007 79.8765 29.3123 87.062 27.7753C94.1323 26.2767 100.434 28.0443 106.044 32.54C107.85 35.2682 110.117 33.6928 112.154 33.1164C115.42 32.1942 118.494 30.8109 121.529 29.197C119.992 34.1539 116.918 37.9196 112.692 40.8783C116.803 40.6093 120.607 39.3413 124.68 37.7274C123.604 39.4181 122.49 40.8015 121.414 42.1079C119.339 44.5671 116.995 46.6421 114.459 48.6018C113.921 48.986 113.806 49.3703 113.806 49.9851C113.921 54.4424 113.575 58.8613 112.769 63.2418C111.923 67.8528 110.578 72.2717 108.772 76.5369C106.774 81.3016 104.238 85.8742 101.126 90.0242C97.2831 95.2116 92.7105 99.7841 87.4463 103.55C80.2992 108.622 72.3836 111.965 63.8148 113.579C58.4353 114.616 53.0173 114.924 47.4841 114.655C43.2573 114.424 39.069 113.771 34.9575 112.733C29.8469 111.427 24.9285 109.467 20.3559 106.816C19.3953 106.201 18.2809 105.778 17.3203 104.818Z" fill="#DA3555"/>
</svg>
