<svg width="142" height="142" viewBox="0 0 142 142" fill="none" xmlns="http://www.w3.org/2000/svg">
  <path d="M138.677 29.0225C133.697 31.2333 128.345 32.7222 122.728 33.3934C128.463 29.9587 132.868 24.5162 134.938 18.0304C129.574 21.2112 123.63 23.5236 117.302 24.77C112.243 19.3726 105.018 16 97.0324 16C79.1032 16 65.9285 32.7278 69.9779 50.093C46.9052 48.9368 26.4438 37.8827 12.7445 21.0815C5.4691 33.5626 8.97146 49.89 21.3341 58.158C16.7883 58.0114 12.502 56.765 8.76279 54.6839C8.45823 67.5484 17.6794 79.5839 31.0346 82.2628C27.1262 83.3231 22.8455 83.5713 18.4916 82.7366C22.0221 93.7681 32.2754 101.794 44.435 102.019C32.7604 111.173 18.0516 115.262 3.32031 113.525C15.6096 121.404 30.2112 126 45.89 126C97.4497 126 126.58 82.4546 124.82 43.3985C130.246 39.4788 134.955 34.589 138.677 29.0225Z" fill="#1A0505"/>
</svg>
