<svg width="142" height="142" viewBox="0 0 142 142" fill="none" xmlns="http://www.w3.org/2000/svg">
  <path d="M17.7781 102.635L10.8516 101.971L15.7718 106.892C16.4671 107.587 17.1909 108.058 17.7977 108.412C18.1132 108.596 18.337 108.719 18.5254 108.822L18.5522 108.836C18.7915 108.966 18.9761 109.067 19.2276 109.228L19.2737 109.257L19.3212 109.285C24.1048 112.058 29.2388 114.102 34.5576 115.462L34.5651 115.463C38.8259 116.539 43.1734 117.217 47.5672 117.457H47.5746L47.582 117.458C53.2871 117.735 58.9051 117.42 64.5027 116.34C73.4211 114.66 81.6708 111.176 89.1125 105.895L89.1201 105.889C94.6055 101.965 99.361 97.2076 103.349 91.8242C106.596 87.4944 109.228 82.7422 111.295 77.8134C113.101 73.5482 114.6 68.6119 115.446 64.0009L115.447 63.9988C116.26 59.5811 116.622 55.1248 116.533 50.6324C119.034 48.678 121.41 46.5559 123.544 44.0263L123.554 44.0149L123.563 44.0034C124.648 42.6853 125.845 41.2034 127.008 39.3758L131.15 32.8679L123.978 35.7094C122.91 36.1328 121.878 36.5245 120.869 36.8761C122.264 34.9123 123.371 32.7132 124.136 30.2437L125.934 24.4468L120.575 27.2958C117.629 28.8619 114.728 30.1599 111.693 31.0167L111.692 31.0171C111.227 31.1487 110.714 31.3358 110.316 31.481L110.31 31.4829C110.188 31.5276 110.076 31.5683 109.981 31.602C109.482 31.7779 109.169 31.8633 108.935 31.8912C108.832 31.9036 108.775 31.9002 108.75 31.8972C108.738 31.8958 108.732 31.8941 108.732 31.8941L108.729 31.8931C108.729 31.8931 108.721 31.8893 108.708 31.8806C108.695 31.8719 108.672 31.8555 108.641 31.8273C108.579 31.7705 108.477 31.6617 108.348 31.4663L108.132 31.14L107.826 30.8954C101.689 25.9769 94.635 23.9673 86.763 25.6358L86.7584 25.6368C78.791 27.3411 73.0163 32.0509 69.5418 39.2966L69.5396 39.3011C67.6349 43.2936 66.8877 47.5525 67.3237 51.9079L67.1817 51.895L66.9094 51.87C66.0293 51.7892 65.2047 51.7087 64.385 51.5874C59.2648 50.7324 54.3612 49.3641 49.6216 47.3066C45.9511 45.7123 42.4936 43.8336 39.2341 41.5264L39.227 41.5213L39.2199 41.5164C34.8062 38.4379 30.8716 34.9384 27.5023 30.8367L27.4926 30.8249L27.4828 30.8132C27.2748 30.5663 26.9667 30.2306 26.5643 29.9577C26.15 29.6767 25.3902 29.3011 24.4198 29.4628C23.4716 29.6209 22.8852 30.2005 22.5976 30.5572C22.3212 30.9001 22.1316 31.2693 22.0049 31.5444C20.8051 33.992 19.9408 36.518 19.5931 39.337C18.7873 45.6824 20.1545 51.4533 23.628 56.5419C23.4003 56.4423 23.0767 56.3138 22.7182 56.2391C22.3294 56.1581 21.4838 56.0514 20.6245 56.5616C19.7384 57.0877 19.428 57.9141 19.3155 58.3542C19.2031 58.7939 19.1895 59.2224 19.1895 59.5133V59.5405L19.1901 59.5677C19.2761 63.5221 20.3131 67.2432 22.3363 70.6887C24.1332 73.7771 26.3789 76.3397 29.0657 78.3308C28.7314 78.4265 28.3535 78.5975 27.9974 78.9027C27.1947 79.5908 26.9935 80.5207 27.0352 81.2148C27.0695 81.7867 27.2607 82.2687 27.419 82.5945C27.4894 82.7523 27.5711 82.9435 27.6611 83.1542L27.6617 83.1558C27.9004 83.7145 28.1975 84.41 28.4981 84.9836C31.4449 90.7824 36.0936 94.8171 42.2435 97.0239C42.5843 97.1477 42.9256 97.2614 43.268 97.366C35.4765 101.788 27.0844 103.527 17.7781 102.635Z" stroke="#ADADAD" stroke-width="5" stroke-miterlimit="10"/>
</svg>
