<svg width="142" height="142" viewBox="0 0 142 142" fill="none" xmlns="http://www.w3.org/2000/svg">
  <path fill-rule="evenodd" clip-rule="evenodd" d="M25.95 128.21H116.27V128.22C122.86 128.22 128.22 122.86 128.22 116.27V25.95C128.22 19.36 122.86 14 116.27 14H25.95C19.36 14 14 19.36 14 25.95V116.26C14 122.85 19.36 128.21 25.95 128.21ZM16.77 25.95C16.77 20.89 20.89 16.77 25.95 16.77V16.78H116.26C121.32 16.78 125.43 20.89 125.43 25.95V116.27C125.43 121.33 121.32 125.44 116.26 125.44H25.94C20.88 125.44 16.77 121.33 16.77 116.27V25.95ZM98.7797 96.5499V45.6599H80.2097V72.3099L62.0097 45.6599H43.4297V96.5499H62.0097V70.9399L80.2097 96.5499H98.7797Z" fill="#ADADAD"/>
</svg>
