<?xml version="1.0" standalone="no"?>
<!DOCTYPE svg PUBLIC "-//W3C//DTD SVG 20010904//EN"
 "http://www.w3.org/TR/2001/REC-SVG-20010904/DTD/svg10.dtd">
<svg version="1.0" xmlns="http://www.w3.org/2000/svg"
 width="1366.000000pt" height="1366.000000pt" viewBox="0 0 1366.000000 1366.000000"
 preserveAspectRatio="xMidYMid meet">
<metadata>
Created by potrace 1.14, written by Peter Selinger 2001-2017
</metadata>
<g transform="translate(0.000000,1366.000000) scale(0.100000,-0.100000)"
fill="#000000" stroke="none">
<path d="M6687 11324 c-1 -1 -72 -5 -157 -8 -85 -4 -171 -9 -190 -10 -19 -2
-71 -7 -115 -11 -44 -4 -89 -9 -100 -10 -11 -2 -47 -6 -80 -10 -75 -8 -184
-23 -275 -39 -14 -3 -41 -7 -60 -10 -19 -3 -46 -8 -60 -11 -14 -2 -61 -12
-105 -21 -44 -9 -84 -17 -90 -18 -595 -121 -1314 -393 -1885 -714 -253 -142
-729 -447 -738 -473 -2 -5 -10 -9 -17 -9 -7 0 -15 -4 -17 -8 -1 -4 -50 -44
-108 -87 -103 -77 -231 -178 -280 -221 -284 -248 -344 -303 -544 -500 -51 -51
-215 -225 -276 -293 -41 -47 -82 -92 -90 -101 -70 -73 -288 -346 -424 -530
-184 -247 -450 -656 -570 -872 -14 -27 -38 -69 -53 -95 -71 -126 -165 -313
-183 -362 -30 -84 -38 -164 -24 -258 15 -105 47 -173 224 -478 223 -385 575
-878 871 -1220 179 -207 557 -594 717 -734 39 -35 87 -77 105 -92 17 -16 88
-76 157 -133 941 -777 2043 -1307 3183 -1531 95 -18 190 -36 212 -39 22 -4 67
-11 100 -16 33 -5 80 -12 105 -15 25 -3 63 -8 85 -11 22 -3 56 -7 75 -9 70 -6
176 -17 200 -20 172 -24 934 -24 1100 0 14 2 65 7 114 10 49 4 96 8 105 10 9
1 45 6 81 10 101 12 188 24 225 31 19 4 113 20 180 31 129 21 457 98 655 154
148 42 492 157 565 189 11 5 72 30 135 55 309 124 680 309 970 483 402 240
860 577 1180 867 260 236 530 511 720 735 40 47 84 99 99 115 157 180 548 718
647 890 6 11 41 68 78 128 36 59 66 110 66 114 0 3 6 14 14 22 35 41 179 319
199 386 21 71 22 219 2 296 -9 35 -37 105 -63 154 -48 94 -165 309 -182 335
-5 8 -19 33 -31 54 -66 122 -246 405 -393 616 -88 127 -309 426 -325 440 -4 3
-41 48 -83 100 -43 52 -89 109 -103 125 -14 17 -47 55 -73 85 -26 30 -73 82
-104 115 -31 33 -66 71 -78 85 -106 123 -507 507 -670 640 -23 19 -48 40 -54
45 -34 32 -229 185 -346 272 -212 158 -565 388 -750 490 -30 17 -82 45 -115
63 -74 41 -301 155 -415 208 -457 212 -978 384 -1465 481 -188 38 -190 38
-310 56 -55 9 -111 17 -125 20 -22 3 -55 7 -170 20 -39 5 -142 14 -210 20
-138 12 -655 26 -663 19z m2878 -1829 c530 -303 960 -633 1404 -1076 64 -63
141 -142 171 -175 30 -33 76 -82 101 -109 85 -93 270 -319 373 -455 55 -74
103 -137 106 -140 23 -22 310 -457 310 -469 0 -5 4 -11 8 -13 4 -1 41 -59 81
-128 41 -69 82 -139 92 -155 l18 -30 -97 -155 c-108 -173 -232 -357 -316 -470
-31 -41 -64 -86 -73 -99 -89 -121 -295 -370 -398 -481 -50 -55 -232 -245 -271
-284 -81 -81 -227 -214 -378 -346 -154 -135 -420 -335 -611 -461 -329 -217
-325 -215 -224 -87 260 333 431 641 594 1068 34 88 106 330 120 398 1 9 10 44
18 77 9 33 19 80 22 105 3 25 8 52 10 60 2 8 7 33 10 55 3 23 7 50 9 62 3 12
8 53 11 90 4 37 8 75 10 83 21 83 21 570 0 745 -2 17 -7 59 -10 95 -4 36 -8
72 -10 80 -3 8 -7 33 -10 55 -21 148 -87 418 -140 580 -159 476 -393 896 -714
1280 -94 112 -73 90 -226 245 -138 140 -138 140 10 55z m-5425 -28 c-503 -494
-863 -1119 -1036 -1796 -31 -126 -65 -294 -79 -401 -3 -25 -8 -56 -10 -70 -2
-14 -6 -57 -10 -95 -3 -39 -8 -90 -11 -115 -5 -61 -6 -464 0 -520 3 -25 8 -81
11 -124 4 -44 9 -89 11 -100 2 -12 7 -41 10 -66 10 -81 64 -340 94 -450 133
-488 374 -970 679 -1355 43 -55 78 -101 76 -103 -5 -6 -455 286 -475 308 -3 3
-50 39 -105 79 -669 497 -1304 1197 -1765 1946 -42 67 -44 71 -63 105 l-18 32
77 131 c93 161 129 217 265 422 96 143 130 192 251 355 39 53 258 326 284 355
11 12 53 59 94 105 247 281 563 581 855 815 28 22 57 45 65 52 105 84 280 206
560 389 47 31 313 184 320 184 3 0 -33 -38 -80 -83z m3002 -3 c122 -15 186
-26 318 -56 47 -11 93 -21 103 -23 96 -20 370 -126 517 -200 163 -82 418 -250
524 -344 175 -157 291 -277 384 -396 25 -33 49 -62 52 -65 11 -10 108 -157
153 -230 58 -97 147 -275 188 -376 40 -101 99 -274 93 -274 -3 0 -1 -8 5 -17
13 -25 58 -232 71 -325 6 -42 13 -86 15 -98 21 -111 22 -544 1 -656 -2 -10 -7
-41 -10 -69 -4 -27 -14 -83 -22 -125 -8 -41 -17 -86 -20 -100 -26 -134 -118
-399 -195 -560 -70 -147 -200 -367 -266 -450 -6 -8 -42 -53 -79 -100 -37 -47
-131 -148 -208 -225 -296 -294 -635 -505 -1031 -642 -55 -19 -107 -36 -115
-38 -8 -3 -49 -13 -90 -24 -41 -11 -91 -23 -110 -26 -19 -3 -42 -8 -50 -10
-39 -11 -199 -34 -300 -42 -156 -13 -529 -6 -582 12 -7 2 -37 6 -67 10 -288
31 -708 180 -984 347 -43 27 -83 48 -88 48 -5 0 -9 5 -9 10 0 6 -5 10 -11 10
-15 0 -189 131 -294 221 -141 121 -332 327 -422 455 -211 301 -327 542 -422
874 -39 134 -43 155 -62 260 -55 317 -55 728 0 983 5 23 12 59 15 81 4 21 8
41 11 45 2 4 6 19 9 33 14 81 109 373 127 392 5 6 9 16 9 24 0 19 126 270 180
357 181 297 407 549 679 759 402 310 913 510 1406 552 44 4 82 8 84 10 10 8
395 -1 493 -12z"/>
<path d="M6170 8924 c-201 -41 -373 -210 -421 -414 -10 -43 -13 -245 -14 -915
l0 -860 -335 -6 c-362 -6 -369 -7 -482 -66 -179 -93 -291 -286 -287 -492 3
-139 51 -259 144 -359 89 -97 219 -164 341 -177 22 -2 417 -4 879 -4 l840 -1
0 -301 c0 -309 6 -382 42 -464 76 -173 230 -297 413 -332 287 -54 579 150 633
442 10 53 13 270 12 913 l0 842 290 0 c159 1 308 3 330 6 278 35 481 263 483
541 1 184 -74 334 -222 447 -55 42 -94 60 -185 87 -61 18 -113 19 -924 19
-473 0 -862 2 -866 4 -4 3 -6 134 -6 293 0 158 -3 312 -7 342 -25 160 -111
292 -250 382 -116 74 -267 102 -408 73z"/>
</g>
</svg>
