<?xml version="1.0" standalone="no"?>
<!DOCTYPE svg PUBLIC "-//W3C//DTD SVG 20010904//EN"
 "http://www.w3.org/TR/2001/REC-SVG-20010904/DTD/svg10.dtd">
<svg version="1.0" xmlns="http://www.w3.org/2000/svg"
 width="1024.000000pt" height="1024.000000pt" viewBox="0 0 1024.000000 1024.000000"
 preserveAspectRatio="xMidYMid meet">
<metadata>
Created by potrace 1.11, written by Peter Selinger 2001-2013
</metadata>
<path fill-rule="evenodd" clip-rule="evenodd" d="M28.7292 667.612C159.641 410.116 403.386 233.244 683.342 233.244C962.745 233.244 1205.19 409.467 1336.24 666.001C1340.19 673.748 1342.25 682.323 1342.25 691.022V692.525C1342.26 701.55 1340.05 710.438 1335.81 718.405C1204.41 964.474 961.482 1132.37 682.59 1132.37C404.091 1132.37 160.851 963.781 29.2662 718.512C25.081 710.699 22.8465 701.991 22.7531 693.128C22.6596 684.265 24.7099 675.511 28.7292 667.612ZM1221.66 691.129C1151.98 566.511 1054.52 467.88 940.312 407.85C1018.06 478.362 1067.35 579.775 1067.35 692.525C1067.35 787 1032.85 873.573 975.963 940.69C1074.9 882.605 1159.64 796.889 1221.66 691.129ZM297.619 692.525C297.619 580.808 345.997 480.214 422.506 409.783C309.423 470.12 212.825 568.247 143.845 691.773C205.665 796.407 289.896 881.66 388.143 939.723C331.758 872.744 297.619 786.538 297.619 692.525ZM957.386 692.525C957.386 540.049 834.959 417.622 682.483 417.622C530.007 417.622 407.58 540.049 407.58 692.525C407.58 845.001 530.007 967.428 682.483 967.428C834.959 967.428 957.386 845.001 957.386 692.525Z" fill="white"/>
<path d="M626.643 471.851C612.08 472.079 598.202 478.075 588.056 488.524C577.909 498.972 572.322 513.02 572.522 527.583V692.525H517.541C510.255 692.422 503.022 693.768 496.261 696.485C489.5 699.202 483.347 703.235 478.158 708.351C472.97 713.466 468.85 719.562 466.038 726.284C463.226 733.006 461.777 740.219 461.777 747.506C461.777 754.792 463.226 762.006 466.038 768.728C468.85 775.449 472.97 781.545 478.158 786.661C483.347 791.776 489.5 795.81 496.261 798.527C503.022 801.243 510.255 802.589 517.541 802.486H682.483V857.467C682.38 864.753 683.726 871.986 686.443 878.747C689.159 885.508 693.193 891.661 698.308 896.85C703.424 902.038 709.52 906.158 716.242 908.97C722.963 911.783 730.177 913.231 737.463 913.231C744.75 913.231 751.963 911.783 758.685 908.97C765.407 906.158 771.503 902.038 776.618 896.85C781.734 891.661 785.767 885.508 788.484 878.747C791.201 871.986 792.547 864.753 792.444 857.467V692.525H847.425C854.71 692.628 861.944 691.282 868.705 688.565C875.465 685.849 881.619 681.815 886.807 676.7C891.996 671.584 896.116 665.488 898.928 658.766C901.74 652.045 903.188 644.831 903.188 637.545C903.188 630.258 901.74 623.045 898.928 616.323C896.116 609.601 891.996 603.505 886.807 598.39C881.619 593.274 875.465 589.241 868.705 586.524C861.944 583.807 854.71 582.461 847.425 582.564H682.483V527.583C682.584 520.228 681.207 512.926 678.435 506.112C675.663 499.298 671.552 493.109 666.346 487.912C661.139 482.715 654.942 478.616 648.122 475.857C641.303 473.099 633.999 471.736 626.643 471.851Z" fill="#DA3555"/>
</svg>
