<svg width="27" height="28" viewBox="0 0 27 28" fill="none" xmlns="http://www.w3.org/2000/svg">
  <path d="M12.2618 2.86254C7.08684 3.42504 2.92434 7.58754 2.36184 12.65C1.79934 17.9375 4.83684 22.6625 9.44934 24.4625C9.78684 24.575 10.7243 24.35 10.7243 23.9V22.1C10.7243 22.1 9.67434 22.2125 9.11184 22.2125C7.53684 22.2125 6.86184 20.8625 6.74934 20.075C6.63684 19.625 6.41184 19.2875 6.07434 18.95C5.73684 18.8375 5.62434 18.8375 5.62434 18.725C5.62434 18.5 5.96184 18.5 6.07434 18.5C6.74934 18.5 7.31184 19.2875 7.53684 19.625C8.09934 20.525 8.77434 20.75 9.11184 20.75C9.56184 20.75 9.89934 20.6375 10.7243 20.525C10.2368 19.7375 10.5743 18.95 11.2493 18.5C8.66184 17.9375 6.74934 16.475 6.74934 14C6.74934 12.7625 7.31184 11.525 8.09934 10.625C7.98684 10.4 7.87434 9.83754 7.87434 9.05004C7.87434 8.60004 7.87434 8.03754 8.09934 7.58754C8.09934 7.36254 8.32434 7.25004 8.43684 7.25004H8.54934C9.11184 7.36254 10.2368 7.70004 11.2493 8.71254C11.9243 8.48754 12.7118 8.37504 13.4993 8.37504C14.2868 8.37504 15.0743 8.48754 15.7493 8.71254C16.7618 7.70004 17.9993 7.36254 18.5618 7.25004H18.6743C18.8993 7.25004 19.0118 7.36254 19.1243 7.58754C19.1243 8.03754 19.1243 8.60004 19.1243 9.05004C19.1243 9.95004 19.0118 10.4 18.8993 10.625C19.6868 11.525 20.2493 12.65 20.2493 14C20.2493 16.475 18.3368 17.9375 15.7493 18.5C16.4243 19.0625 16.8743 20.075 16.8743 21.0875V24.0125C16.8743 24.35 17.2118 24.6875 17.6618 24.575C21.8243 22.8875 24.7493 18.8375 24.7493 14.1125C24.7493 7.36254 19.0118 2.07504 12.2618 2.86254Z" fill="white" fill-opacity="0.7"/>
</svg>
